<?xml version="1.0" encoding="utf-8" ?>
<svg xmlns="http://www.w3.org/2000/svg" width="53.73" height="22.863" viewBox="0 0 53.73 22.863"><g transform="translate(0.026)"><path d="M10.167,2.947A4.113,4.113,0,0,0,11.1,0,4.244,4.244,0,0,0,8.38,1.384,3.882,3.882,0,0,0,7.4,4.2a3.207,3.207,0,0,0,2.769-1.25M11.1,4.465c-1.518-.089-2.813.848-3.528.848s-1.831-.8-3.036-.8a4.48,4.48,0,0,0-3.8,2.322C-.863,9.645.3,13.8,1.906,16.075c.759,1.116,1.7,2.367,2.9,2.322,1.161-.045,1.608-.759,2.992-.759s1.786.759,3.036.714,2.054-1.116,2.813-2.277a8.993,8.993,0,0,0,1.25-2.59A4.045,4.045,0,0,1,14.409,6.3a4.157,4.157,0,0,0-3.3-1.831" transform="translate(0)" fill="#fff"/><g transform="translate(17.892 1.295)"><path d="M46.441,2.9a5.31,5.31,0,0,1,5.582,5.537,5.368,5.368,0,0,1-5.671,5.582H42.735v5.76H40.1V2.9Zm-3.706,8.931h2.992c2.277,0,3.572-1.25,3.572-3.349,0-2.143-1.295-3.349-3.572-3.349H42.69v6.7Zm9.958,4.51c0-2.143,1.652-3.483,4.6-3.662l3.394-.179v-.938c0-1.384-.938-2.188-2.456-2.188a2.355,2.355,0,0,0-2.59,1.786H53.228c.134-2.233,2.054-3.885,5.091-3.885,2.992,0,4.912,1.563,4.912,4.064v8.484H60.819V17.814h-.045a4.376,4.376,0,0,1-3.885,2.233C54.389,20.047,52.692,18.529,52.692,16.341Zm7.993-1.116v-.982l-3.036.179c-1.518.089-2.367.759-2.367,1.831s.893,1.786,2.233,1.786a2.952,2.952,0,0,0,3.17-2.813Zm4.778,9.154V22.324a4.853,4.853,0,0,0,.8.045,2.065,2.065,0,0,0,2.188-1.742c0-.045.223-.759.223-.759L64.213,7.544h2.724l3.126,10.047h.045L73.233,7.544h2.679l-4.6,12.994c-1.072,2.992-2.277,3.93-4.823,3.93C66.312,24.423,65.687,24.423,65.463,24.379Z" transform="translate(-40.1 -2.9)" fill="#fff"/></g></g></svg>