<svg xmlns="http://www.w3.org/2000/svg" width="96.833" height="24.67" viewBox="0 0 96.833 24.67"><g transform="translate(-45.895 -35.988)"><path d="M-62.543,0h3.009V-5.066h4.267V0h3.009V-12.155h-3.009v4.607h-4.267v-4.607h-3.009ZM-47.77.255a2.975,2.975,0,0,0,2.6-1.326h.051V0h2.652V-8.7h-2.771v4.862a1.548,1.548,0,0,1-1.53,1.751c-.884,0-1.309-.527-1.309-1.479V-8.7H-50.83v5.712C-50.83-1.054-49.776.255-47.77.255Zm11.951.017c2.244,0,3.706-1.734,3.706-4.624,0-2.618-1.462-4.607-3.723-4.607a2.849,2.849,0,0,0-2.482,1.241h-.051v-4.437H-41.14V0h2.652V-1.105h.034A2.924,2.924,0,0,0-35.819.272ZM-36.6-1.921c-1.139,0-1.853-.986-1.853-2.431,0-1.428.6-2.5,1.819-2.5,1.122,0,1.717.986,1.717,2.482C-34.918-2.856-35.513-1.921-36.6-1.921ZM-31.858,0h3.026l.7-2.193h4.25L-23.171,0h3.162L-24.4-12.155h-3.094Zm4.42-4.352.935-2.941c.2-.629.493-1.717.493-1.717h.034s.272,1.088.476,1.717l.918,2.941Zm8.109,7.225h2.771V-.9h.034A2.9,2.9,0,0,0-14.059.272c2.278,0,3.791-1.8,3.791-4.624,0-2.618-1.411-4.607-3.723-4.607A3.165,3.165,0,0,0-16.626-7.65h-.051V-8.7h-2.652Zm4.556-4.743c-1.19,0-1.87-.969-1.87-2.38s.612-2.482,1.819-2.482c1.19,0,1.751.986,1.751,2.482C-13.073-2.771-13.719-1.87-14.773-1.87Zm5.44,4.743h2.771V-.9h.034A2.9,2.9,0,0,0-4.063.272c2.278,0,3.791-1.8,3.791-4.624,0-2.618-1.411-4.607-3.723-4.607A3.165,3.165,0,0,0-6.63-7.65h-.051V-8.7H-9.333ZM-4.777-1.87c-1.19,0-1.87-.969-1.87-2.38s.612-2.482,1.819-2.482c1.19,0,1.751.986,1.751,2.482C-3.077-2.771-3.723-1.87-4.777-1.87Z" transform="translate(143 54)" fill="#fff"/><g transform="translate(45.895 32.949)"><path d="M5.72,50.952H0v-5.72a5.72,5.72,0,0,1,9.765-4.045h0A5.72,5.72,0,0,1,5.72,50.952" transform="translate(0 -23.243)" fill="#fff" fill-rule="evenodd"/><path d="M18.473.5H5.787A5.8,5.8,0,0,0,0,6.311v5.945H12.619a5.866,5.866,0,0,0,5.854-5.878Z" transform="translate(0 2.539)" fill="#fff" fill-rule="evenodd"/></g></g></svg>