<svg xmlns="http://www.w3.org/2000/svg" width="30" height="30" viewBox="0 0 30 30">
    <rect width="30" height="30" rx="15" />
    <path d="M3.086,14a2.316,2.316,0,0,1-1.607-.52,1.71,1.71,0,0,1-.573-1.32,4.827,4.827,0,0,1,.043-.635c.029-.216.075-.463.138-.733l.706-2.6c.062-.241.116-.479.16-.707a3.256,3.256,0,0,0,.064-.609.965.965,0,0,0-.2-.693,1.1,1.1,0,0,0-.759-.2A1.918,1.918,0,0,0,.5,6.08c-.186.056-.353.113-.5.168l.19-.8c.464-.195.913-.363,1.336-.5a3.924,3.924,0,0,1,1.207-.209,2.263,2.263,0,0,1,1.582.511,1.73,1.73,0,0,1,.556,1.329c0,.115-.013.315-.039.595a4.246,4.246,0,0,1-.142.783l-.707,2.587c-.057.2-.109.443-.155.711a3.926,3.926,0,0,0-.069.6.891.891,0,0,0,.224.7,1.239,1.239,0,0,0,.776.186,2.188,2.188,0,0,0,.587-.094,3.317,3.317,0,0,0,.474-.164l-.19.8c-.567.231-1.026.409-1.363.529A3.505,3.505,0,0,1,3.086,14ZM4.31,3.263a1.681,1.681,0,0,1-1.2-.476,1.535,1.535,0,0,1-.5-1.151A1.551,1.551,0,0,1,3.112.48,1.676,1.676,0,0,1,4.31,0,1.663,1.663,0,0,1,5.5.48,1.559,1.559,0,0,1,6,1.635a1.543,1.543,0,0,1-.5,1.151A1.668,1.668,0,0,1,4.31,3.263Z"
          transform="translate(12 8)" fill="#86939e" />
</svg>