<?xml version="1.0" encoding="utf-8" ?>
<svg xmlns="http://www.w3.org/2000/svg" width="56" height="18" viewBox="0 0 56 18"><g transform="translate(-139 -185)"><rect width="54" height="16" rx="8" transform="translate(140 186)" fill="none" stroke="#ccc" stroke-width="2"/><path d="M3.16.12C4.94.12,5.7-.6,5.7-2.28V-6.8H4.25v4.47c0,.85-.29,1.16-1.07,1.16S2.11-1.48,2.11-2.33V-6.8H.61v4.52C.61-.6,1.37.12,3.16.12ZM7.639,0h1.5V-2.38h1.19c1.72,0,2.45-.65,2.45-2.2s-.73-2.22-2.45-2.22H7.639Zm1.5-3.66V-5.52H10.2c.76,0,1.08.28,1.08.93s-.32.93-1.08.93ZM14.337,0h2.53c1.83,0,2.64-.83,2.64-2.68V-4.12c0-1.84-.81-2.68-2.64-2.68h-2.53Zm1.5-1.28V-5.52h.82c1.01,0,1.35.37,1.35,1.43v1.38c0,1.06-.34,1.43-1.35,1.43ZM20.456,0h1.52l.43-1.37h2.14L24.976,0h1.59l-2.28-6.8h-1.55Zm2.32-2.62.7-2.48.7,2.48ZM28.454,0h1.5V-5.49h1.82V-6.8h-5.14v1.31h1.82Zm4.709,0h4.76V-1.29h-3.26V-2.82h2.66V-4.1h-2.66V-5.51h3.16V-6.8h-4.66Z" transform="translate(148 197)" fill="#fff"/></g></svg>