<svg xmlns="http://www.w3.org/2000/svg" width="40" height="35.046" viewBox="0 0 40 35.046">
    <g transform="translate(-4 -6.477)">
        <path d="M18.142,25.142h9.523a1,1,0,0,0,1-1V.335a1,1,0,0,0-1.928-.371L17.214,23.771a1,1,0,0,0,.928,1.371Z"
              transform="translate(35.142 -10.665) rotate(90)" fill="#fff" fill-rule="evenodd" opacity="0.202" />
        <path d="M18.477-49H28a1,1,0,0,1,1,1v23.807a1,1,0,0,1-1,1,1,1,0,0,1-.928-.629L17.549-47.629a1,1,0,0,1,.557-1.3A1,1,0,0,1,18.477-49Z"
              transform="translate(59 59) rotate(-90)" fill="#fff" fill-rule="evenodd" />
        <rect width="4" height="40" rx="2" transform="translate(44 22) rotate(90)" fill="#fff" opacity="0.202" />
    </g>
</svg>