<svg xmlns="http://www.w3.org/2000/svg" width="28" height="28" viewBox="0 0 28 28">
    <path d="M26.5,12.25H1.5A1.5,1.5,0,0,1,0,10.75V1.5A1.5,1.5,0,0,1,1.5,0h25A1.5,1.5,0,0,1,28,1.5V10.75A1.5,1.5,0,0,1,26.5,12.25ZM12,3.5A1.5,1.5,0,0,0,10.5,5v.5A1.5,1.5,0,0,0,12,7h4a1.5,1.5,0,0,0,1.5-1.5V5A1.5,1.5,0,0,0,16,3.5Z"
          transform="translate(0 0)" fill="#fff" opacity="0.202" />
    <path d="M26.5,12.25H1.5A1.5,1.5,0,0,1,0,10.75V1.5A1.5,1.5,0,0,1,1.5,0h25A1.5,1.5,0,0,1,28,1.5V10.75A1.5,1.5,0,0,1,26.5,12.25ZM12,3.5A1.5,1.5,0,0,0,10.5,5v.5A1.5,1.5,0,0,0,12,7h4a1.5,1.5,0,0,0,1.5-1.5V5A1.5,1.5,0,0,0,16,3.5Z"
          transform="translate(0 15.75)" fill="#fff" />
</svg>